<?xml version="1.0" encoding="utf-8"?>
<!-- Generator: Adobe Illustrator 16.0.0, SVG Export Plug-In . SVG Version: 6.00 Build 0)  -->
<!DOCTYPE svg PUBLIC "-//W3C//DTD SVG 1.1//EN" "http://www.w3.org/Graphics/SVG/1.1/DTD/svg11.dtd">
<svg version="1.1" id="Camada_1" xmlns="http://www.w3.org/2000/svg" xmlns:xlink="http://www.w3.org/1999/xlink" x="0px" y="0px"
	 width="440px" height="387.047px" viewBox="0 0 440 387.047" enable-background="new 0 0 440 387.047" xml:space="preserve">
<g>
	<g>
		<g>
			<g>
				<path fill="#A9A9A9" d="M198.855,253.44l76.009,87.257c-48.19,41.978-121.285,36.942-163.265-11.248
					c-41.978-48.188-36.942-121.286,11.248-163.264c5.783-5.037,11.407-9.059,18.045-12.9L198.855,253.44z"/>
			</g>
		</g>
		<g>
			<g>
				<path fill="#F7C060" d="M198.855,253.44l113.166-24.176c9.079,42.5-4.388,82.887-37.157,111.433L198.855,253.44z"/>
			</g>
		</g>
		<g>
			<g>
				<path fill="#63ACE0" d="M198.855,253.44l11.978-115.096c50.853,5.29,90.507,40.921,101.188,90.92L198.855,253.44z"/>
			</g>
		</g>
		<g>
			<g>
				<path fill="#FDDD6F" d="M198.855,253.44l-57.963-100.155c22.125-12.805,44.513-17.588,69.94-14.94L198.855,253.44z"/>
			</g>
		</g>
		<g>
			<polygon fill="#A9A9A9" points="186.447,137.641 185.447,137.641 185.447,90.304 220.489,90.304 220.489,91.304 186.447,91.304 
							"/>
		</g>
		<g>
			<polygon fill="#A9A9A9" points="310.489,166.304 275.148,166.304 275.148,165.83 274.648,165.855 274.648,165.304 
				310.489,165.304 			"/>
		</g>
		<g>
			<rect x="310.734" y="284.481" fill="#A9A9A9" width="39.755" height="1"/>
		</g>
		<g>
			<path d="M235.48,94.405h-4.469l-1.01,2.746h-1.473l4.123-10.664h1.238l4.058,10.664h-1.472L235.48,94.405z M231.459,93.196h3.589
				l-1.758-4.855h-0.044L231.459,93.196z"/>
			<path d="M243.749,95.042c0-0.317-0.121-0.578-0.362-0.783c-0.242-0.205-0.7-0.384-1.374-0.535
				c-0.962-0.21-1.686-0.493-2.171-0.852c-0.486-0.358-0.729-0.848-0.729-1.467c0-0.644,0.273-1.191,0.82-1.646
				c0.547-0.453,1.26-0.68,2.139-0.68c0.924,0,1.657,0.237,2.201,0.71c0.545,0.475,0.805,1.051,0.78,1.729l-0.015,0.045h-1.377
				c0-0.347-0.146-0.658-0.436-0.935c-0.291-0.275-0.676-0.413-1.154-0.413c-0.512,0-0.893,0.112-1.143,0.336
				c-0.248,0.226-0.373,0.496-0.373,0.813c0,0.312,0.109,0.56,0.33,0.739c0.219,0.182,0.666,0.343,1.34,0.484
				c1.001,0.215,1.745,0.506,2.234,0.875c0.487,0.368,0.732,0.863,0.732,1.482c0,0.703-0.285,1.272-0.854,1.707
				c-0.569,0.435-1.312,0.652-2.23,0.652c-1.011,0-1.807-0.257-2.388-0.77s-0.856-1.11-0.827-1.795l0.014-0.043h1.377
				c0.024,0.51,0.215,0.883,0.572,1.118c0.355,0.235,0.773,0.354,1.252,0.354c0.513,0,0.914-0.104,1.205-0.312
				C243.604,95.651,243.749,95.379,243.749,95.042z"/>
			<path d="M251.593,95.042c0-0.317-0.121-0.578-0.362-0.783c-0.242-0.205-0.7-0.384-1.374-0.535
				c-0.962-0.21-1.686-0.493-2.171-0.852c-0.486-0.358-0.729-0.848-0.729-1.467c0-0.644,0.273-1.191,0.82-1.646
				c0.547-0.453,1.26-0.68,2.139-0.68c0.924,0,1.657,0.237,2.201,0.71c0.545,0.475,0.805,1.051,0.78,1.729l-0.015,0.045h-1.377
				c0-0.347-0.146-0.658-0.436-0.935c-0.291-0.275-0.676-0.413-1.154-0.413c-0.512,0-0.893,0.112-1.143,0.336
				c-0.248,0.226-0.373,0.496-0.373,0.813c0,0.312,0.109,0.56,0.33,0.739c0.219,0.182,0.666,0.343,1.34,0.484
				c1.001,0.215,1.745,0.506,2.234,0.875c0.487,0.368,0.732,0.863,0.732,1.482c0,0.703-0.285,1.272-0.854,1.707
				c-0.569,0.435-1.312,0.652-2.23,0.652c-1.011,0-1.807-0.257-2.388-0.77s-0.856-1.11-0.827-1.795l0.014-0.043h1.377
				c0.024,0.51,0.215,0.883,0.572,1.118c0.355,0.235,0.773,0.354,1.252,0.354c0.513,0,0.914-0.104,1.205-0.312
				C251.447,95.651,251.593,95.379,251.593,95.042z"/>
			<path d="M256.39,87.198h-1.443v-1.473h1.443V87.198z M256.39,97.151h-1.443v-7.925h1.443V97.151z"/>
			<path d="M263.216,95.042c0-0.317-0.121-0.578-0.362-0.783c-0.242-0.205-0.7-0.384-1.374-0.535
				c-0.962-0.21-1.686-0.493-2.171-0.852c-0.486-0.358-0.729-0.848-0.729-1.467c0-0.644,0.273-1.191,0.82-1.646
				c0.547-0.453,1.26-0.68,2.139-0.68c0.924,0,1.657,0.237,2.201,0.71c0.545,0.475,0.805,1.051,0.78,1.729l-0.015,0.045h-1.377
				c0-0.347-0.146-0.658-0.436-0.935c-0.291-0.275-0.676-0.413-1.154-0.413c-0.512,0-0.893,0.112-1.143,0.336
				c-0.248,0.226-0.373,0.496-0.373,0.813c0,0.312,0.109,0.56,0.33,0.739c0.219,0.182,0.666,0.343,1.34,0.484
				c1.001,0.215,1.745,0.506,2.234,0.875c0.487,0.368,0.732,0.863,0.732,1.482c0,0.703-0.285,1.272-0.854,1.707
				c-0.569,0.435-1.312,0.652-2.23,0.652c-1.011,0-1.807-0.257-2.388-0.77s-0.856-1.11-0.827-1.795l0.014-0.043h1.377
				c0.024,0.51,0.215,0.883,0.572,1.118c0.355,0.235,0.773,0.354,1.252,0.354c0.513,0,0.914-0.104,1.205-0.312
				C263.07,95.651,263.216,95.379,263.216,95.042z"/>
			<path d="M268.356,87.315v1.911h1.502v1.069h-1.502v4.812c0,0.371,0.077,0.632,0.231,0.783c0.153,0.151,0.357,0.227,0.611,0.227
				c0.083,0,0.175-0.009,0.274-0.029c0.101-0.019,0.189-0.043,0.268-0.072l0.19,0.988c-0.107,0.088-0.265,0.16-0.473,0.216
				c-0.207,0.057-0.416,0.085-0.626,0.085c-0.586,0-1.053-0.178-1.398-0.531c-0.348-0.354-0.521-0.909-0.521-1.666v-4.812h-1.26
				v-1.069h1.26v-1.911H268.356z"/>
			<path d="M274.927,97.306c-1.104,0-1.981-0.368-2.633-1.103c-0.652-0.735-0.979-1.688-0.979-2.86v-0.322
				c0-1.128,0.336-2.066,1.008-2.816c0.671-0.749,1.466-1.124,2.384-1.124c1.069,0,1.877,0.322,2.425,0.967
				c0.546,0.645,0.82,1.504,0.82,2.578v0.901h-5.143l-0.021,0.036c0.015,0.76,0.207,1.384,0.578,1.873s0.892,0.734,1.561,0.734
				c0.488,0,0.917-0.069,1.285-0.209c0.369-0.139,0.688-0.33,0.956-0.575l0.563,0.939c-0.283,0.279-0.656,0.513-1.12,0.7
				C276.147,97.212,275.586,97.306,274.927,97.306z M276.934,87.593v0.184h-1.179l-1.077-1.084l-1.069,1.084h-1.172v-0.19
				l1.802-1.735h0.879L276.934,87.593z M274.707,90.216c-0.483,0-0.896,0.203-1.237,0.609c-0.343,0.406-0.553,0.916-0.631,1.529
				l0.016,0.036h3.654v-0.189c0-0.564-0.151-1.037-0.454-1.416C275.752,90.405,275.303,90.216,274.707,90.216z"/>
			<path d="M280.858,89.227l0.104,1.179c0.264-0.419,0.594-0.745,0.992-0.978c0.397-0.231,0.851-0.348,1.358-0.348
				c0.854,0,1.517,0.25,1.985,0.751c0.469,0.5,0.703,1.273,0.703,2.318v5.002h-1.443v-4.973c0-0.698-0.138-1.194-0.414-1.487
				c-0.275-0.293-0.697-0.439-1.264-0.439c-0.415,0-0.782,0.101-1.102,0.3c-0.32,0.201-0.575,0.475-0.766,0.82v5.779h-1.443v-7.925
				H280.858z"/>
			<path d="M291.317,96.17c0.479,0,0.9-0.147,1.264-0.443c0.364-0.295,0.546-0.657,0.546-1.087h1.296l0.016,0.043
				c0.023,0.685-0.28,1.292-0.912,1.824c-0.633,0.532-1.369,0.799-2.209,0.799c-1.152,0-2.033-0.376-2.644-1.129
				c-0.61-0.751-0.915-1.696-0.915-2.834v-0.308c0-1.128,0.306-2.069,0.919-2.823c0.612-0.755,1.492-1.132,2.64-1.132
				c0.928,0,1.687,0.273,2.274,0.82c0.589,0.547,0.873,1.219,0.854,2.015l-0.015,0.043h-1.304c0-0.482-0.171-0.895-0.513-1.233
				c-0.342-0.34-0.774-0.509-1.297-0.509c-0.757,0-1.297,0.271-1.622,0.815c-0.324,0.544-0.487,1.21-0.487,2v0.308
				c0,0.81,0.162,1.483,0.484,2.022S290.556,96.17,291.317,96.17z"/>
			<path d="M297.616,87.198h-1.443v-1.473h1.443V87.198z M297.616,97.151h-1.443v-7.925h1.443V97.151z"/>
			<path d="M304.706,97.151c-0.049-0.239-0.087-0.45-0.113-0.634c-0.027-0.183-0.043-0.367-0.048-0.553
				c-0.269,0.381-0.619,0.699-1.051,0.956c-0.433,0.256-0.897,0.385-1.396,0.385c-0.825,0-1.454-0.212-1.886-0.634
				c-0.433-0.423-0.648-1.005-0.648-1.747c0-0.757,0.307-1.349,0.919-1.776c0.613-0.427,1.444-0.641,2.494-0.641h1.567v-0.784
				c0-0.463-0.142-0.831-0.425-1.102c-0.283-0.271-0.684-0.406-1.201-0.406c-0.464,0-0.841,0.118-1.132,0.354
				c-0.29,0.237-0.436,0.521-0.436,0.854h-1.377l-0.015-0.044c-0.029-0.576,0.243-1.104,0.816-1.582
				c0.574-0.479,1.314-0.718,2.223-0.718c0.898,0,1.621,0.229,2.168,0.685c0.547,0.457,0.82,1.115,0.82,1.975v3.815
				c0,0.283,0.016,0.557,0.045,0.82s0.082,0.522,0.16,0.776H304.706z M302.312,96.089c0.521,0,0.993-0.134,1.413-0.401
				s0.693-0.574,0.82-0.92v-1.286h-1.618c-0.582,0-1.047,0.146-1.396,0.438c-0.35,0.292-0.524,0.636-0.524,1.03
				c0,0.351,0.11,0.628,0.33,0.832C301.557,95.987,301.881,96.089,302.312,96.089z"/>
			<path d="M313.099,89.227l0.104,1.04c0.258-0.376,0.587-0.668,0.984-0.875c0.398-0.208,0.861-0.312,1.389-0.312
				s0.979,0.122,1.358,0.366c0.378,0.244,0.663,0.61,0.853,1.099c0.25-0.449,0.579-0.806,0.989-1.069s0.889-0.396,1.436-0.396
				c0.806,0,1.442,0.277,1.911,0.831c0.469,0.555,0.703,1.389,0.703,2.502v4.738h-1.442v-4.754c0-0.78-0.135-1.334-0.403-1.658
				c-0.269-0.325-0.669-0.487-1.201-0.487c-0.493,0-0.892,0.171-1.197,0.513c-0.305,0.342-0.484,0.774-0.538,1.297v0.059v5.031
				h-1.45v-4.754c0-0.741-0.138-1.285-0.414-1.629c-0.275-0.345-0.673-0.517-1.189-0.517c-0.439,0-0.802,0.091-1.084,0.271
				c-0.284,0.182-0.501,0.436-0.652,0.762v5.867h-1.443v-7.925H313.099z"/>
			<path d="M328.209,97.306c-1.104,0-1.981-0.368-2.633-1.103c-0.652-0.735-0.979-1.688-0.979-2.86v-0.322
				c0-1.128,0.336-2.066,1.008-2.816c0.671-0.749,1.466-1.124,2.384-1.124c1.069,0,1.877,0.322,2.425,0.967
				c0.546,0.645,0.82,1.504,0.82,2.578v0.901h-5.143l-0.021,0.036c0.015,0.76,0.207,1.384,0.578,1.873s0.892,0.734,1.561,0.734
				c0.488,0,0.917-0.069,1.285-0.209c0.369-0.139,0.688-0.33,0.956-0.575l0.563,0.939c-0.283,0.279-0.656,0.513-1.12,0.7
				C329.43,97.212,328.868,97.306,328.209,97.306z M327.989,90.216c-0.483,0-0.896,0.203-1.237,0.609
				c-0.343,0.406-0.553,0.916-0.631,1.529l0.016,0.036h3.654v-0.189c0-0.564-0.151-1.037-0.454-1.416
				C329.034,90.405,328.585,90.216,327.989,90.216z M328.656,86.157h1.684l0.016,0.045l-1.979,1.904h-1.076L328.656,86.157z"/>
			<path d="M332.523,93.335c0-1.273,0.272-2.302,0.816-3.083c0.545-0.781,1.308-1.172,2.289-1.172c0.464,0,0.875,0.086,1.234,0.257
				c0.358,0.171,0.665,0.42,0.919,0.746v-4.357h1.443v11.426h-1.18l-0.168-0.975c-0.26,0.372-0.577,0.652-0.953,0.843
				s-0.812,0.286-1.311,0.286c-0.967,0-1.724-0.351-2.271-1.052c-0.547-0.7-0.82-1.622-0.82-2.765V93.335z M333.966,93.489
				c0,0.801,0.164,1.441,0.491,1.923c0.327,0.48,0.835,0.722,1.523,0.722c0.43,0,0.791-0.098,1.084-0.293s0.532-0.469,0.718-0.82
				v-3.699c-0.186-0.327-0.426-0.587-0.722-0.78c-0.295-0.192-0.65-0.289-1.065-0.289c-0.693,0-1.205,0.286-1.534,0.856
				c-0.33,0.572-0.495,1.314-0.495,2.227V93.489z"/>
			<path d="M342.938,87.198h-1.443v-1.473h1.443V87.198z M342.938,97.151h-1.443v-7.925h1.443V97.151z"/>
			<path d="M348.38,96.17c0.479,0,0.9-0.147,1.264-0.443c0.364-0.295,0.546-0.657,0.546-1.087h1.296l0.016,0.043
				c0.023,0.685-0.28,1.292-0.912,1.824c-0.633,0.532-1.369,0.799-2.209,0.799c-1.152,0-2.033-0.376-2.644-1.129
				c-0.61-0.751-0.915-1.696-0.915-2.834v-0.308c0-1.128,0.306-2.069,0.919-2.823c0.612-0.755,1.492-1.132,2.64-1.132
				c0.928,0,1.687,0.273,2.274,0.82c0.589,0.547,0.873,1.219,0.854,2.015l-0.015,0.043h-1.304c0-0.482-0.171-0.895-0.513-1.233
				c-0.342-0.34-0.774-0.509-1.297-0.509c-0.757,0-1.297,0.271-1.622,0.815c-0.324,0.544-0.487,1.21-0.487,2v0.308
				c0,0.81,0.162,1.483,0.484,2.022S347.618,96.17,348.38,96.17z"/>
			<path d="M357.989,97.151c-0.049-0.239-0.087-0.45-0.113-0.634c-0.027-0.183-0.043-0.367-0.048-0.553
				c-0.269,0.381-0.619,0.699-1.051,0.956c-0.433,0.256-0.897,0.385-1.396,0.385c-0.825,0-1.454-0.212-1.886-0.634
				c-0.433-0.423-0.648-1.005-0.648-1.747c0-0.757,0.307-1.349,0.919-1.776c0.613-0.427,1.444-0.641,2.494-0.641h1.567v-0.784
				c0-0.463-0.142-0.831-0.425-1.102c-0.283-0.271-0.684-0.406-1.201-0.406c-0.464,0-0.841,0.118-1.132,0.354
				c-0.29,0.237-0.436,0.521-0.436,0.854h-1.377l-0.015-0.044c-0.029-0.576,0.243-1.104,0.816-1.582
				c0.574-0.479,1.314-0.718,2.223-0.718c0.898,0,1.621,0.229,2.168,0.685c0.547,0.457,0.82,1.115,0.82,1.975v3.815
				c0,0.283,0.016,0.557,0.045,0.82s0.082,0.522,0.16,0.776H357.989z M355.595,96.089c0.521,0,0.993-0.134,1.413-0.401
				s0.693-0.574,0.82-0.92v-1.286h-1.618c-0.582,0-1.047,0.146-1.396,0.438c-0.35,0.292-0.524,0.636-0.524,1.03
				c0,0.351,0.11,0.628,0.33,0.832C354.84,95.987,355.164,96.089,355.595,96.089z"/>
			<path d="M233.371,115.151h-1.443v-9.258l-2.183,0.029v-1.04l3.626-0.396V115.151z"/>
			<path d="M244.444,111.087c0,1.361-0.302,2.405-0.904,3.131c-0.604,0.725-1.43,1.088-2.479,1.088s-1.88-0.364-2.49-1.092
				s-0.915-1.77-0.915-3.127v-2.527c0-1.357,0.304-2.401,0.911-3.131c0.608-0.73,1.435-1.096,2.479-1.096
				c1.05,0,1.879,0.365,2.486,1.096c0.608,0.729,0.912,1.773,0.912,3.131V111.087z M243.001,108.25c0-0.923-0.167-1.616-0.501-2.082
				c-0.335-0.466-0.819-0.699-1.454-0.699s-1.118,0.233-1.45,0.699s-0.498,1.159-0.498,2.082v3.124c0,0.923,0.169,1.619,0.505,2.09
				c0.338,0.471,0.823,0.706,1.458,0.706s1.117-0.234,1.446-0.702c0.33-0.469,0.494-1.166,0.494-2.094V108.25z"/>
			<path d="M246.041,106.538c0-0.62,0.2-1.143,0.601-1.567s0.935-0.638,1.604-0.638c0.668,0,1.203,0.212,1.604,0.634
				c0.4,0.423,0.601,0.946,0.601,1.571v0.564c0,0.62-0.199,1.14-0.597,1.56c-0.398,0.42-0.93,0.63-1.594,0.63
				c-0.674,0-1.212-0.21-1.614-0.63c-0.403-0.42-0.604-0.939-0.604-1.56V106.538z M247.11,107.103c0,0.361,0.099,0.667,0.297,0.919
				c0.197,0.251,0.481,0.377,0.853,0.377c0.356,0,0.633-0.124,0.828-0.374c0.195-0.248,0.293-0.557,0.293-0.922v-0.564
				c0-0.361-0.099-0.67-0.297-0.927c-0.197-0.256-0.478-0.384-0.838-0.384c-0.367,0-0.647,0.128-0.843,0.384
				c-0.195,0.257-0.293,0.565-0.293,0.927V107.103z M248.634,114.346l-0.798-0.491l5.207-8.334l0.799,0.49L248.634,114.346z
				 M251.205,112.536c0-0.619,0.199-1.141,0.6-1.563c0.4-0.422,0.936-0.634,1.604-0.634c0.664,0,1.197,0.212,1.601,0.634
				c0.402,0.423,0.604,0.944,0.604,1.563v0.572c0,0.625-0.2,1.147-0.6,1.566c-0.401,0.421-0.931,0.631-1.59,0.631
				c-0.674,0-1.212-0.21-1.615-0.631c-0.402-0.419-0.604-0.941-0.604-1.566V112.536z M252.273,113.108
				c0,0.365,0.1,0.675,0.297,0.926c0.198,0.252,0.482,0.377,0.854,0.377c0.356,0,0.632-0.125,0.828-0.377
				c0.194-0.251,0.293-0.561,0.293-0.926v-0.572c0-0.36-0.101-0.668-0.301-0.922s-0.479-0.381-0.835-0.381
				c-0.361,0-0.641,0.127-0.839,0.381c-0.197,0.254-0.297,0.562-0.297,0.922V113.108z"/>
		</g>
		<g>
			<path d="M326.547,151.08l3.398,8.664h0.044l3.398-8.664h1.846v10.664h-1.442v-4.219l0.146-4.336l-0.037-0.008l-3.457,8.562
				h-0.959l-3.443-8.54l-0.036,0.007l0.14,4.314v4.219h-1.443V151.08H326.547z"/>
			<path d="M340.896,161.898c-1.104,0-1.981-0.368-2.633-1.103c-0.652-0.735-0.979-1.688-0.979-2.86v-0.322
				c0-1.128,0.336-2.066,1.008-2.816c0.671-0.749,1.466-1.124,2.384-1.124c1.069,0,1.877,0.322,2.425,0.967
				c0.546,0.645,0.82,1.504,0.82,2.578v0.901h-5.143l-0.021,0.036c0.015,0.76,0.207,1.384,0.578,1.873s0.892,0.734,1.561,0.734
				c0.488,0,0.917-0.069,1.285-0.209c0.369-0.139,0.688-0.33,0.956-0.575l0.563,0.939c-0.283,0.279-0.656,0.513-1.12,0.7
				C342.116,161.805,341.555,161.898,340.896,161.898z M340.676,154.809c-0.483,0-0.896,0.203-1.237,0.609
				c-0.343,0.406-0.553,0.916-0.631,1.529l0.016,0.036h3.654v-0.189c0-0.564-0.151-1.037-0.454-1.416
				C341.721,154.998,341.271,154.809,340.676,154.809z"/>
			<path d="M347.099,151.791h-1.443v-1.473h1.443V151.791z M347.099,161.744h-1.443v-7.925h1.443V161.744z"/>
			<path d="M348.981,157.709c0-1.172,0.316-2.138,0.951-2.897c0.635-0.759,1.497-1.139,2.586-1.139c1.099,0,1.967,0.379,2.604,1.136
				c0.638,0.757,0.956,1.724,0.956,2.9v0.16c0,1.183-0.317,2.149-0.952,2.9c-0.635,0.753-1.499,1.129-2.593,1.129
				s-1.959-0.378-2.597-1.132c-0.637-0.755-0.955-1.72-0.955-2.897V157.709z M350.424,157.866c0,0.839,0.177,1.531,0.531,2.077
				c0.354,0.546,0.88,0.819,1.578,0.819c0.688,0,1.211-0.273,1.567-0.819s0.535-1.238,0.535-2.077v-0.161
				c0-0.829-0.18-1.52-0.539-2.07c-0.358-0.551-0.885-0.826-1.578-0.826c-0.688,0-1.21,0.275-1.563,0.826
				c-0.354,0.551-0.531,1.241-0.531,2.07V157.866z"/>
			<path d="M366.442,161.744c-0.049-0.239-0.087-0.45-0.113-0.634c-0.027-0.183-0.043-0.367-0.048-0.553
				c-0.269,0.381-0.619,0.699-1.051,0.956c-0.433,0.256-0.897,0.385-1.396,0.385c-0.825,0-1.454-0.212-1.886-0.634
				c-0.433-0.423-0.648-1.005-0.648-1.747c0-0.757,0.307-1.349,0.919-1.776c0.613-0.427,1.444-0.641,2.494-0.641h1.567v-0.784
				c0-0.463-0.142-0.831-0.425-1.102c-0.283-0.271-0.684-0.406-1.201-0.406c-0.464,0-0.841,0.118-1.132,0.354
				c-0.29,0.237-0.436,0.521-0.436,0.854h-1.377l-0.015-0.044c-0.029-0.576,0.243-1.104,0.816-1.582
				c0.574-0.479,1.314-0.718,2.223-0.718c0.898,0,1.621,0.229,2.168,0.685c0.547,0.457,0.82,1.115,0.82,1.975v3.815
				c0,0.283,0.016,0.557,0.045,0.82s0.082,0.522,0.16,0.776H366.442z M364.048,160.682c0.521,0,0.993-0.134,1.413-0.401
				s0.693-0.574,0.82-0.92v-1.286h-1.618c-0.582,0-1.047,0.146-1.396,0.438c-0.35,0.292-0.524,0.636-0.524,1.03
				c0,0.351,0.11,0.628,0.33,0.832C363.293,160.58,363.617,160.682,364.048,160.682z"/>
			<path d="M371.107,153.819l0.104,1.04c0.258-0.376,0.587-0.668,0.984-0.875c0.398-0.208,0.861-0.312,1.389-0.312
				s0.979,0.122,1.358,0.366c0.378,0.244,0.663,0.61,0.853,1.099c0.25-0.449,0.579-0.806,0.989-1.069s0.889-0.396,1.436-0.396
				c0.806,0,1.442,0.277,1.911,0.831c0.469,0.555,0.703,1.389,0.703,2.502v4.738h-1.442v-4.754c0-0.78-0.135-1.334-0.403-1.658
				c-0.269-0.325-0.669-0.487-1.201-0.487c-0.493,0-0.892,0.171-1.197,0.513c-0.305,0.342-0.484,0.774-0.538,1.297v0.059v5.031
				h-1.45v-4.754c0-0.741-0.138-1.285-0.414-1.629c-0.275-0.345-0.673-0.517-1.189-0.517c-0.439,0-0.802,0.091-1.084,0.271
				c-0.284,0.182-0.501,0.436-0.652,0.762v5.867h-1.443v-7.925H371.107z"/>
			<path d="M389.696,158.082c0,1.143-0.274,2.064-0.823,2.765c-0.55,0.701-1.306,1.052-2.267,1.052
				c-0.523,0-0.978-0.102-1.363-0.305c-0.386-0.202-0.705-0.502-0.959-0.896l-0.176,1.047h-1.18v-11.426h1.443v4.438
				c0.249-0.352,0.558-0.62,0.927-0.806c0.368-0.186,0.799-0.278,1.292-0.278c0.977,0,1.738,0.391,2.285,1.172s0.82,1.81,0.82,3.083
				V158.082z M388.254,157.928c0-0.908-0.167-1.648-0.502-2.223c-0.334-0.573-0.844-0.86-1.526-0.86
				c-0.445,0-0.819,0.108-1.125,0.326c-0.305,0.217-0.548,0.509-0.729,0.875v3.435c0.186,0.392,0.429,0.696,0.729,0.916
				c0.301,0.22,0.68,0.33,1.139,0.33c0.679,0,1.185-0.242,1.517-0.726s0.498-1.123,0.498-1.919V157.928z"/>
			<path d="M393.015,151.791h-1.443v-1.473h1.443V151.791z M393.015,161.744h-1.443v-7.925h1.443V161.744z"/>
			<path d="M398.522,161.898c-1.104,0-1.981-0.368-2.633-1.103c-0.652-0.735-0.979-1.688-0.979-2.86v-0.322
				c0-1.128,0.336-2.066,1.008-2.816c0.671-0.749,1.466-1.124,2.384-1.124c1.069,0,1.877,0.322,2.425,0.967
				c0.546,0.645,0.82,1.504,0.82,2.578v0.901h-5.143l-0.021,0.036c0.015,0.76,0.207,1.384,0.578,1.873s0.892,0.734,1.561,0.734
				c0.488,0,0.917-0.069,1.285-0.209c0.369-0.139,0.688-0.33,0.956-0.575l0.563,0.939c-0.283,0.279-0.656,0.513-1.12,0.7
				C399.743,161.805,399.182,161.898,398.522,161.898z M398.303,154.809c-0.483,0-0.896,0.203-1.237,0.609
				c-0.343,0.406-0.553,0.916-0.631,1.529l0.016,0.036h3.654v-0.189c0-0.564-0.151-1.037-0.454-1.416
				C399.348,154.998,398.898,154.809,398.303,154.809z"/>
			<path d="M404.454,153.819l0.104,1.179c0.264-0.419,0.594-0.745,0.992-0.978c0.397-0.231,0.851-0.348,1.358-0.348
				c0.854,0,1.517,0.25,1.985,0.751c0.469,0.5,0.703,1.273,0.703,2.318v5.002h-1.443v-4.973c0-0.698-0.138-1.194-0.414-1.487
				c-0.275-0.293-0.697-0.439-1.264-0.439c-0.415,0-0.782,0.101-1.102,0.3c-0.32,0.201-0.575,0.475-0.766,0.82v5.779h-1.443v-7.925
				H404.454z"/>
			<path d="M413.595,151.908v1.911h1.502v1.069h-1.502v4.812c0,0.371,0.077,0.632,0.231,0.783c0.153,0.151,0.357,0.227,0.611,0.227
				c0.083,0,0.175-0.009,0.274-0.029c0.101-0.019,0.189-0.043,0.268-0.072l0.19,0.988c-0.107,0.088-0.265,0.16-0.473,0.216
				c-0.207,0.057-0.416,0.085-0.626,0.085c-0.586,0-1.053-0.178-1.398-0.531c-0.348-0.354-0.521-0.909-0.521-1.666v-4.812h-1.26
				v-1.069h1.26v-1.911H413.595z"/>
			<path d="M420.165,161.898c-1.104,0-1.981-0.368-2.633-1.103c-0.652-0.735-0.979-1.688-0.979-2.86v-0.322
				c0-1.128,0.336-2.066,1.008-2.816c0.671-0.749,1.466-1.124,2.384-1.124c1.069,0,1.877,0.322,2.425,0.967
				c0.546,0.645,0.82,1.504,0.82,2.578v0.901h-5.143l-0.021,0.036c0.015,0.76,0.207,1.384,0.578,1.873s0.892,0.734,1.561,0.734
				c0.488,0,0.917-0.069,1.285-0.209c0.369-0.139,0.688-0.33,0.956-0.575l0.563,0.939c-0.283,0.279-0.656,0.513-1.12,0.7
				C421.386,161.805,420.824,161.898,420.165,161.898z M419.945,154.809c-0.483,0-0.896,0.203-1.237,0.609
				c-0.343,0.406-0.553,0.916-0.631,1.529l0.016,0.036h3.654v-0.189c0-0.564-0.151-1.037-0.454-1.416
				C420.99,154.998,420.541,154.809,419.945,154.809z"/>
			<path d="M331.161,179.744h-6.914v-0.995l3.493-3.876c0.625-0.697,1.049-1.252,1.271-1.662c0.222-0.41,0.333-0.83,0.333-1.26
				c0-0.532-0.155-0.98-0.465-1.344c-0.311-0.364-0.722-0.546-1.234-0.546c-0.737,0-1.28,0.189-1.63,0.567
				c-0.349,0.379-0.523,0.91-0.523,1.594h-1.385l-0.014-0.045c-0.025-0.917,0.28-1.688,0.915-2.314
				c0.635-0.624,1.514-0.938,2.637-0.938c0.957,0,1.72,0.28,2.289,0.839c0.568,0.56,0.853,1.271,0.853,2.136
				c0,0.581-0.172,1.163-0.516,1.746c-0.345,0.584-0.827,1.21-1.447,1.879l-2.805,3.047l0.015,0.037h5.127V179.744z"/>
			<path d="M339.444,175.68c0,1.361-0.302,2.405-0.904,3.131c-0.604,0.725-1.43,1.088-2.479,1.088s-1.88-0.364-2.49-1.092
				s-0.915-1.77-0.915-3.127v-2.527c0-1.357,0.304-2.401,0.911-3.131c0.608-0.73,1.435-1.096,2.479-1.096
				c1.05,0,1.879,0.365,2.486,1.096c0.608,0.729,0.912,1.773,0.912,3.131V175.68z M338.001,172.843c0-0.923-0.167-1.616-0.501-2.082
				c-0.335-0.466-0.819-0.699-1.454-0.699s-1.118,0.233-1.45,0.699s-0.498,1.159-0.498,2.082v3.124c0,0.923,0.169,1.619,0.505,2.09
				c0.338,0.471,0.823,0.706,1.458,0.706s1.117-0.234,1.446-0.702c0.33-0.469,0.494-1.166,0.494-2.094V172.843z"/>
			<path d="M341.041,171.131c0-0.62,0.2-1.143,0.601-1.567s0.935-0.638,1.604-0.638c0.668,0,1.203,0.212,1.604,0.634
				c0.4,0.423,0.601,0.946,0.601,1.571v0.564c0,0.62-0.199,1.14-0.597,1.56c-0.398,0.42-0.93,0.63-1.594,0.63
				c-0.674,0-1.212-0.21-1.614-0.63c-0.403-0.42-0.604-0.939-0.604-1.56V171.131z M342.11,171.695c0,0.361,0.099,0.667,0.297,0.919
				c0.197,0.251,0.481,0.377,0.853,0.377c0.356,0,0.633-0.124,0.828-0.374c0.195-0.248,0.293-0.557,0.293-0.922v-0.564
				c0-0.361-0.099-0.67-0.297-0.927c-0.197-0.256-0.478-0.384-0.838-0.384c-0.367,0-0.647,0.128-0.843,0.384
				c-0.195,0.257-0.293,0.565-0.293,0.927V171.695z M343.634,178.938l-0.798-0.491l5.207-8.334l0.799,0.49L343.634,178.938z
				 M346.205,177.129c0-0.619,0.199-1.141,0.6-1.563c0.4-0.422,0.936-0.634,1.604-0.634c0.664,0,1.197,0.212,1.601,0.634
				c0.402,0.423,0.604,0.944,0.604,1.563v0.572c0,0.625-0.2,1.147-0.6,1.566c-0.401,0.421-0.931,0.631-1.59,0.631
				c-0.674,0-1.212-0.21-1.615-0.631c-0.402-0.419-0.604-0.941-0.604-1.566V177.129z M347.273,177.701
				c0,0.365,0.1,0.675,0.297,0.926c0.198,0.252,0.482,0.377,0.854,0.377c0.356,0,0.632-0.125,0.828-0.377
				c0.194-0.251,0.293-0.561,0.293-0.926v-0.572c0-0.36-0.101-0.668-0.301-0.922s-0.479-0.381-0.835-0.381
				c-0.361,0-0.641,0.127-0.839,0.381c-0.197,0.254-0.297,0.562-0.297,0.922V177.701z"/>
		</g>
		<g>
			<path d="M363.144,272.366l2.49-4.16h1.743l-3.384,5.288l3.457,5.376h-1.722l-2.556-4.233l-2.563,4.233h-1.743l3.457-5.376
				l-3.384-5.288h1.729L363.144,272.366z"/>
			<path d="M363.371,296.87h-1.443v-9.258l-2.183,0.029v-1.04l3.626-0.396V296.87z"/>
			<path d="M374.605,287.341c-1.289,1.534-2.159,2.893-2.611,4.076c-0.451,1.185-0.777,2.619-0.978,4.303l-0.117,1.15h-1.443
				l0.117-1.15c0.205-1.679,0.604-3.181,1.194-4.504s1.399-2.615,2.425-3.875h-5.801v-1.135h7.214V287.341z"/>
			<path d="M376.034,288.257c0-0.62,0.2-1.143,0.601-1.567s0.935-0.638,1.604-0.638c0.668,0,1.203,0.212,1.604,0.634
				c0.4,0.423,0.601,0.946,0.601,1.571v0.564c0,0.62-0.199,1.14-0.597,1.56c-0.398,0.42-0.93,0.63-1.594,0.63
				c-0.674,0-1.212-0.21-1.614-0.63c-0.403-0.42-0.604-0.939-0.604-1.56V288.257z M377.104,288.821c0,0.361,0.099,0.667,0.297,0.919
				c0.197,0.251,0.481,0.377,0.853,0.377c0.356,0,0.633-0.124,0.828-0.374c0.195-0.248,0.293-0.557,0.293-0.922v-0.564
				c0-0.361-0.099-0.67-0.297-0.927c-0.197-0.256-0.478-0.384-0.838-0.384c-0.367,0-0.647,0.128-0.843,0.384
				c-0.195,0.257-0.293,0.565-0.293,0.927V288.821z M378.627,296.064l-0.798-0.491l5.207-8.334l0.799,0.49L378.627,296.064z
				 M381.198,294.255c0-0.619,0.199-1.141,0.6-1.563c0.4-0.422,0.936-0.634,1.604-0.634c0.664,0,1.197,0.212,1.601,0.634
				c0.402,0.423,0.604,0.944,0.604,1.563v0.572c0,0.625-0.2,1.147-0.6,1.566c-0.401,0.421-0.931,0.631-1.59,0.631
				c-0.674,0-1.212-0.21-1.615-0.631c-0.402-0.419-0.604-0.941-0.604-1.566V294.255z M382.267,294.827
				c0,0.365,0.1,0.675,0.297,0.926c0.198,0.252,0.482,0.377,0.854,0.377c0.356,0,0.632-0.125,0.828-0.377
				c0.194-0.251,0.293-0.561,0.293-0.926v-0.572c0-0.36-0.101-0.668-0.301-0.922s-0.479-0.381-0.835-0.381
				c-0.361,0-0.641,0.127-0.839,0.381c-0.197,0.254-0.297,0.562-0.297,0.922V294.827z"/>
		</g>
		<g>
			<rect x="49.135" y="284.481" fill="#A9A9A9" width="39.755" height="1"/>
		</g>
		<g>
			<path d="M44.771,273.626l2.783-5.42h1.647l-3.743,6.914v3.75h-1.436v-3.846l-3.684-6.818h1.648L44.771,273.626z"/>
			<path d="M22.768,292.058l0.615-5.852h5.34v1.281h-4.116l-0.352,2.996c0.225-0.166,0.475-0.304,0.751-0.414
				c0.275-0.109,0.594-0.169,0.955-0.18c0.982-0.009,1.755,0.311,2.318,0.96c0.564,0.649,0.846,1.523,0.846,2.622
				c0,1.069-0.286,1.929-0.86,2.578c-0.573,0.649-1.409,0.975-2.509,0.975c-0.903,0-1.654-0.247-2.256-0.74
				c-0.6-0.493-0.889-1.218-0.863-2.176l0.014-0.043h1.305c0,0.578,0.167,1.027,0.501,1.346c0.335,0.318,0.768,0.478,1.3,0.478
				c0.61,0,1.084-0.215,1.422-0.644c0.336-0.429,0.505-1.017,0.505-1.763c0-0.683-0.171-1.243-0.513-1.682s-0.812-0.658-1.414-0.658
				c-0.566,0-0.977,0.086-1.23,0.257s-0.439,0.432-0.557,0.783L22.768,292.058z"/>
			<path d="M32.772,290.872h1.26c0.64,0,1.093-0.16,1.358-0.48c0.267-0.319,0.399-0.766,0.399-1.336c0-0.61-0.151-1.074-0.454-1.393
				c-0.303-0.316-0.75-0.476-1.341-0.476c-0.562,0-1.012,0.165-1.351,0.494c-0.34,0.33-0.509,0.769-0.509,1.315h-1.385l-0.015-0.045
				c-0.024-0.805,0.268-1.49,0.875-2.054c0.608-0.564,1.403-0.847,2.384-0.847c0.986,0,1.773,0.263,2.359,0.788
				c0.586,0.524,0.879,1.273,0.879,2.245c0,0.439-0.134,0.877-0.399,1.314c-0.267,0.437-0.666,0.771-1.198,1
				c0.64,0.21,1.093,0.539,1.359,0.988c0.266,0.449,0.398,0.952,0.398,1.509c0,0.972-0.318,1.735-0.955,2.292
				c-0.638,0.557-1.452,0.836-2.443,0.836c-0.972,0-1.775-0.263-2.413-0.788c-0.637-0.524-0.943-1.236-0.919-2.135l0.021-0.044
				h1.377c0,0.56,0.173,1.004,0.517,1.335c0.345,0.331,0.817,0.496,1.417,0.496c0.61,0,1.089-0.165,1.436-0.496
				s0.521-0.819,0.521-1.467c0-0.656-0.153-1.141-0.462-1.452c-0.307-0.312-0.793-0.467-1.457-0.467h-1.26V290.872z"/>
			<path d="M39.138,288.257c0-0.62,0.2-1.143,0.601-1.567s0.935-0.638,1.604-0.638c0.668,0,1.203,0.212,1.604,0.634
				c0.4,0.423,0.601,0.946,0.601,1.571v0.564c0,0.62-0.199,1.14-0.597,1.56c-0.398,0.42-0.93,0.63-1.594,0.63
				c-0.674,0-1.212-0.21-1.614-0.63c-0.403-0.42-0.604-0.939-0.604-1.56V288.257z M40.207,288.821c0,0.361,0.099,0.667,0.297,0.919
				c0.197,0.251,0.481,0.377,0.853,0.377c0.356,0,0.633-0.124,0.828-0.374c0.195-0.248,0.293-0.557,0.293-0.922v-0.564
				c0-0.361-0.099-0.67-0.297-0.927c-0.197-0.256-0.478-0.384-0.838-0.384c-0.367,0-0.647,0.128-0.843,0.384
				c-0.195,0.257-0.293,0.565-0.293,0.927V288.821z M41.73,296.064l-0.798-0.491l5.207-8.334l0.799,0.49L41.73,296.064z
				 M44.302,294.255c0-0.619,0.199-1.141,0.6-1.563c0.4-0.422,0.936-0.634,1.604-0.634c0.664,0,1.197,0.212,1.601,0.634
				c0.402,0.423,0.604,0.944,0.604,1.563v0.572c0,0.625-0.2,1.147-0.6,1.566c-0.401,0.421-0.931,0.631-1.59,0.631
				c-0.674,0-1.212-0.21-1.615-0.631c-0.402-0.419-0.604-0.941-0.604-1.566V294.255z M45.37,294.827c0,0.365,0.1,0.675,0.297,0.926
				c0.198,0.252,0.482,0.377,0.854,0.377c0.356,0,0.632-0.125,0.828-0.377c0.194-0.251,0.293-0.561,0.293-0.926v-0.572
				c0-0.36-0.101-0.668-0.301-0.922s-0.479-0.381-0.835-0.381c-0.361,0-0.641,0.127-0.839,0.381
				c-0.197,0.254-0.297,0.562-0.297,0.922V294.827z"/>
		</g>
	</g>
	<g>
		<path fill="#3C3C3B" d="M26.07,31.601V18.804h4.395c1.564,0,2.854,0.5,3.867,1.499s1.521,2.281,1.521,3.845v2.118
			c0,1.57-0.507,2.852-1.521,3.845s-2.303,1.49-3.867,1.49H26.07z M28.637,20.781v8.842h1.696c0.92,0,1.641-0.31,2.162-0.931
			s0.782-1.431,0.782-2.432v-2.134c0-0.989-0.261-1.794-0.782-2.415c-0.521-0.62-1.242-0.931-2.162-0.931H28.637z"/>
		<path fill="#3C3C3B" d="M40.59,31.601h-2.566V18.804h2.566V31.601z"/>
		<path fill="#3C3C3B" d="M50.056,28.261c0-0.492-0.175-0.888-0.523-1.187s-0.959-0.58-1.832-0.844
			c-1.523-0.439-2.675-0.961-3.454-1.564s-1.169-1.43-1.169-2.479s0.446-1.906,1.34-2.571s2.035-0.998,3.424-0.998
			c1.406,0,2.552,0.374,3.437,1.121s1.312,1.668,1.283,2.764l-0.018,0.053h-2.487c0-0.592-0.197-1.071-0.594-1.437
			c-0.395-0.366-0.95-0.549-1.665-0.549c-0.686,0-1.216,0.152-1.591,0.457s-0.562,0.694-0.562,1.169c0,0.434,0.2,0.79,0.602,1.068
			s1.095,0.573,2.079,0.883c1.412,0.393,2.481,0.911,3.208,1.556s1.09,1.491,1.09,2.54c0,1.096-0.433,1.96-1.297,2.593
			s-2.005,0.949-3.423,0.949c-1.395,0-2.61-0.359-3.647-1.077s-1.541-1.724-1.512-3.019l0.018-0.053h2.496
			c0,0.762,0.232,1.32,0.699,1.674c0.465,0.354,1.114,0.532,1.946,0.532c0.697,0,1.23-0.144,1.6-0.431S50.056,28.741,50.056,28.261z
			"/>
		<path fill="#3C3C3B" d="M63.406,20.781h-3.621v10.819h-2.566V20.781h-3.604v-1.978h9.791V20.781z"/>
		<path fill="#3C3C3B" d="M67.405,26.485v5.115h-2.566V18.804h4.825c1.459,0,2.6,0.333,3.423,0.998s1.235,1.592,1.235,2.782
			c0,0.662-0.173,1.23-0.519,1.705s-0.853,0.858-1.521,1.151c0.756,0.223,1.299,0.595,1.63,1.116s0.497,1.166,0.497,1.934v0.94
			c0,0.357,0.048,0.731,0.146,1.121c0.096,0.39,0.262,0.678,0.496,0.866v0.185h-2.646c-0.234-0.188-0.387-0.501-0.457-0.94
			s-0.105-0.855-0.105-1.248v-0.905c0-0.639-0.175-1.135-0.522-1.49c-0.35-0.354-0.84-0.532-1.473-0.532H67.405z M67.405,24.508
			h2.215c0.721,0,1.258-0.152,1.613-0.457c0.354-0.305,0.531-0.756,0.531-1.354c0-0.586-0.178-1.052-0.531-1.397
			c-0.355-0.346-0.878-0.519-1.569-0.519h-2.259V24.508z"/>
		<path fill="#3C3C3B" d="M79.464,31.601h-2.566V18.804h2.566V31.601z"/>
		<path fill="#3C3C3B" d="M82.021,31.601V18.804h4.324c1.506,0,2.681,0.293,3.524,0.879s1.266,1.462,1.266,2.628
			c0,0.592-0.157,1.121-0.47,1.586c-0.314,0.466-0.77,0.816-1.367,1.05c0.768,0.164,1.343,0.516,1.727,1.055
			s0.576,1.163,0.576,1.872c0,1.225-0.404,2.152-1.213,2.782s-1.954,0.945-3.437,0.945H82.021z M84.588,24.165h1.846
			c0.686,0,1.213-0.141,1.582-0.422s0.554-0.691,0.554-1.23c0-0.592-0.187-1.028-0.558-1.31c-0.373-0.281-0.928-0.422-1.666-0.422
			h-1.758V24.165z M84.588,25.94v3.683h2.364c0.68,0,1.198-0.147,1.556-0.443c0.357-0.295,0.536-0.732,0.536-1.311
			c0-0.625-0.152-1.103-0.457-1.433c-0.305-0.331-0.785-0.496-1.441-0.496H84.588z"/>
		<path fill="#3C3C3B" d="M103.695,18.804v8.49c0,1.436-0.475,2.543-1.424,3.322s-2.191,1.169-3.727,1.169
			c-1.529,0-2.764-0.39-3.705-1.169c-0.939-0.779-1.41-1.887-1.41-3.322v-8.49h2.575v8.483c0,0.843,0.226,1.474,0.677,1.893
			s1.072,0.628,1.863,0.628c0.803,0,1.433-0.208,1.89-0.624s0.686-1.048,0.686-1.897v-8.483H103.695z"/>
		<path fill="#3C3C3B" d="M108.661,31.601h-2.566V18.804h2.566V31.601z"/>
		<path fill="#3C3C3B" d="M120.878,27.241l0.018,0.053c0.023,1.377-0.397,2.47-1.261,3.278c-0.865,0.809-2.064,1.213-3.6,1.213
			c-1.541,0-2.792-0.495-3.753-1.485s-1.441-2.265-1.441-3.823v-2.54c0-1.553,0.469-2.827,1.406-3.823s2.156-1.494,3.656-1.494
			c1.582,0,2.818,0.406,3.709,1.217s1.324,1.917,1.301,3.318l-0.018,0.053h-2.496c0-0.844-0.202-1.49-0.606-1.938
			s-1.034-0.672-1.89-0.672c-0.768,0-1.377,0.312-1.828,0.935s-0.677,1.418-0.677,2.384v2.555c0,0.978,0.237,1.778,0.712,2.402
			s1.116,0.935,1.925,0.935c0.803,0,1.396-0.215,1.779-0.646s0.576-1.071,0.576-1.92H120.878z M116.826,31.557l-0.097,0.501
			c0.375,0.064,0.688,0.217,0.94,0.457s0.378,0.595,0.378,1.063c0,0.627-0.269,1.128-0.804,1.503
			c-0.537,0.375-1.297,0.562-2.281,0.562l-0.062-1.415c0.299,0,0.536-0.06,0.712-0.18s0.264-0.303,0.264-0.549
			c0-0.24-0.094-0.409-0.281-0.505s-0.51-0.16-0.967-0.189l0.272-1.248H116.826z"/>
		<path fill="#3C3C3B" d="M129.588,28.841h-4.491l-0.87,2.76h-2.593l4.403-12.797h2.628l4.386,12.797h-2.593L129.588,28.841z
			 M130.581,15.288c0,0.562-0.175,1.042-0.523,1.437s-0.789,0.593-1.322,0.593c-0.41,0-0.875-0.127-1.393-0.382
			c-0.52-0.255-0.931-0.382-1.235-0.382c-0.211,0-0.387,0.095-0.527,0.286s-0.211,0.417-0.211,0.681l-1.371-0.369
			c0-0.551,0.174-1.03,0.522-1.437s0.787-0.611,1.314-0.611c0.328,0,0.773,0.127,1.336,0.382s0.996,0.382,1.301,0.382
			c0.199,0,0.375-0.094,0.527-0.281s0.229-0.419,0.229-0.694L130.581,15.288z M125.729,26.828h3.226l-1.582-5.027h-0.053
			L125.729,26.828z"/>
		<path fill="#3C3C3B" d="M144.538,26.354c0,1.57-0.497,2.868-1.489,3.894c-0.994,1.025-2.284,1.538-3.872,1.538
			c-1.576,0-2.856-0.513-3.841-1.538s-1.477-2.323-1.477-3.894v-2.303c0-1.564,0.49-2.861,1.473-3.889
			c0.98-1.028,2.26-1.542,3.836-1.542c1.588,0,2.88,0.514,3.876,1.542s1.494,2.325,1.494,3.889V26.354z M141.972,24.04
			c0-0.998-0.249-1.817-0.747-2.457s-1.184-0.96-2.057-0.96s-1.55,0.318-2.03,0.956c-0.48,0.637-0.721,1.458-0.721,2.461v2.324
			c0,1.016,0.243,1.844,0.729,2.483c0.486,0.64,1.163,0.96,2.03,0.96c0.879,0,1.564-0.32,2.057-0.96
			c0.492-0.64,0.738-1.467,0.738-2.483V24.04z"/>
		<path fill="#3C3C3B" d="M151.024,31.601V18.804h4.395c1.564,0,2.854,0.5,3.867,1.499s1.521,2.281,1.521,3.845v2.118
			c0,1.57-0.507,2.852-1.521,3.845s-2.303,1.49-3.867,1.49H151.024z M153.591,20.781v8.842h1.696c0.92,0,1.641-0.31,2.162-0.931
			s0.782-1.431,0.782-2.432v-2.134c0-0.989-0.261-1.794-0.782-2.415c-0.521-0.62-1.242-0.931-2.162-0.931H153.591z"/>
		<path fill="#3C3C3B" d="M173.111,26.354c0,1.57-0.497,2.868-1.489,3.894c-0.994,1.025-2.284,1.538-3.872,1.538
			c-1.576,0-2.856-0.513-3.841-1.538s-1.477-2.323-1.477-3.894v-2.303c0-1.564,0.49-2.861,1.473-3.889
			c0.98-1.028,2.26-1.542,3.836-1.542c1.588,0,2.88,0.514,3.876,1.542s1.494,2.325,1.494,3.889V26.354z M170.545,24.04
			c0-0.998-0.249-1.817-0.747-2.457s-1.184-0.96-2.057-0.96s-1.55,0.318-2.03,0.956c-0.48,0.637-0.721,1.458-0.721,2.461v2.324
			c0,1.016,0.243,1.844,0.729,2.483c0.486,0.64,1.163,0.96,2.03,0.96c0.879,0,1.564-0.32,2.057-0.96
			c0.492-0.64,0.738-1.467,0.738-2.483V24.04z"/>
		<path fill="#3C3C3B" d="M182.023,28.261c0-0.492-0.175-0.888-0.523-1.187s-0.959-0.58-1.832-0.844
			c-1.523-0.439-2.675-0.961-3.454-1.564s-1.169-1.43-1.169-2.479s0.446-1.906,1.34-2.571s2.035-0.998,3.424-0.998
			c1.406,0,2.552,0.374,3.437,1.121s1.312,1.668,1.283,2.764l-0.018,0.053h-2.487c0-0.592-0.197-1.071-0.594-1.437
			c-0.395-0.366-0.95-0.549-1.665-0.549c-0.686,0-1.216,0.152-1.591,0.457s-0.562,0.694-0.562,1.169c0,0.434,0.2,0.79,0.602,1.068
			s1.095,0.573,2.079,0.883c1.412,0.393,2.481,0.911,3.208,1.556s1.09,1.491,1.09,2.54c0,1.096-0.433,1.96-1.297,2.593
			s-2.005,0.949-3.423,0.949c-1.395,0-2.61-0.359-3.647-1.077s-1.541-1.724-1.512-3.019l0.018-0.053h2.496
			c0,0.762,0.232,1.32,0.699,1.674c0.465,0.354,1.114,0.532,1.946,0.532c0.697,0,1.23-0.144,1.6-0.431
			S182.023,28.741,182.023,28.261z"/>
		<path fill="#3C3C3B" d="M198.942,26.283h-5.361v5.317h-2.566V18.804h8.824v1.978h-6.258v3.524h5.361V26.283z"/>
		<path fill="#3C3C3B" d="M206.835,28.841h-4.491l-0.87,2.76h-2.593l4.403-12.797h2.628l4.386,12.797h-2.593L206.835,28.841z
			 M202.977,26.828h3.226l-1.582-5.027h-0.053L202.977,26.828z"/>
		<path fill="#3C3C3B" d="M220.335,20.781h-3.621v10.819h-2.566V20.781h-3.604v-1.978h9.791V20.781z"/>
		<path fill="#3C3C3B" d="M231.77,26.354c0,1.57-0.497,2.868-1.489,3.894c-0.994,1.025-2.284,1.538-3.872,1.538
			c-1.576,0-2.856-0.513-3.841-1.538s-1.477-2.323-1.477-3.894v-2.303c0-1.564,0.49-2.861,1.473-3.889
			c0.98-1.028,2.26-1.542,3.836-1.542c1.588,0,2.88,0.514,3.876,1.542s1.494,2.325,1.494,3.889V26.354z M229.203,24.04
			c0-0.998-0.249-1.817-0.747-2.457s-1.184-0.96-2.057-0.96s-1.55,0.318-2.03,0.956c-0.48,0.637-0.721,1.458-0.721,2.461v2.324
			c0,1.016,0.243,1.844,0.729,2.483c0.486,0.64,1.163,0.96,2.03,0.96c0.879,0,1.564-0.32,2.057-0.96
			c0.492-0.64,0.738-1.467,0.738-2.483V24.04z"/>
		<path fill="#3C3C3B" d="M236.34,26.485v5.115h-2.566V18.804h4.825c1.459,0,2.6,0.333,3.423,0.998s1.235,1.592,1.235,2.782
			c0,0.662-0.173,1.23-0.519,1.705s-0.853,0.858-1.521,1.151c0.756,0.223,1.299,0.595,1.63,1.116s0.497,1.166,0.497,1.934v0.94
			c0,0.357,0.048,0.731,0.146,1.121c0.096,0.39,0.262,0.678,0.496,0.866v0.185h-2.646c-0.234-0.188-0.387-0.501-0.457-0.94
			s-0.105-0.855-0.105-1.248v-0.905c0-0.639-0.175-1.135-0.522-1.49c-0.35-0.354-0.84-0.532-1.473-0.532H236.34z M236.34,24.508
			h2.215c0.721,0,1.258-0.152,1.613-0.457c0.354-0.305,0.531-0.756,0.531-1.354c0-0.586-0.178-1.052-0.531-1.397
			c-0.355-0.346-0.878-0.519-1.569-0.519h-2.259V24.508z"/>
		<path fill="#3C3C3B" d="M253.54,25.976h-5.3v3.647h6.196v1.978h-8.763V18.804h8.745v1.978h-6.179v3.217h5.3V25.976z"/>
		<path fill="#3C3C3B" d="M262.918,28.261c0-0.492-0.175-0.888-0.523-1.187s-0.959-0.58-1.832-0.844
			c-1.523-0.439-2.675-0.961-3.454-1.564s-1.169-1.43-1.169-2.479s0.446-1.906,1.34-2.571s2.035-0.998,3.424-0.998
			c1.406,0,2.552,0.374,3.437,1.121s1.312,1.668,1.283,2.764l-0.018,0.053h-2.487c0-0.592-0.197-1.071-0.594-1.437
			c-0.395-0.366-0.95-0.549-1.665-0.549c-0.686,0-1.216,0.152-1.591,0.457s-0.562,0.694-0.562,1.169c0,0.434,0.2,0.79,0.602,1.068
			s1.095,0.573,2.079,0.883c1.412,0.393,2.481,0.911,3.208,1.556s1.09,1.491,1.09,2.54c0,1.096-0.433,1.96-1.297,2.593
			s-2.005,0.949-3.423,0.949c-1.395,0-2.61-0.359-3.647-1.077s-1.541-1.724-1.512-3.019l0.018-0.053h2.496
			c0,0.762,0.232,1.32,0.699,1.674c0.465,0.354,1.114,0.532,1.946,0.532c0.697,0,1.23-0.144,1.6-0.431
			S262.918,28.741,262.918,28.261z"/>
		<path fill="#3C3C3B" d="M271.909,31.601V18.804h4.395c1.564,0,2.854,0.5,3.867,1.499s1.521,2.281,1.521,3.845v2.118
			c0,1.57-0.507,2.852-1.521,3.845s-2.303,1.49-3.867,1.49H271.909z M274.476,20.781v8.842h1.696c0.92,0,1.641-0.31,2.162-0.931
			s0.782-1.431,0.782-2.432v-2.134c0-0.989-0.261-1.794-0.782-2.415c-0.521-0.62-1.242-0.931-2.162-0.931H274.476z"/>
		<path fill="#3C3C3B" d="M291.57,25.976h-5.3v3.647h6.196v1.978h-8.763V18.804h8.745v1.978h-6.179v3.217h5.3V25.976z"/>
		<path fill="#3C3C3B" d="M303.058,20.781h-3.621v10.819h-2.566V20.781h-3.604v-1.978h9.791V20.781z"/>
		<path fill="#3C3C3B" d="M312.356,25.976h-5.3v3.647h6.196v1.978h-8.763V18.804h8.745v1.978h-6.179v3.217h5.3V25.976z"/>
		<path fill="#3C3C3B" d="M317.393,26.485v5.115h-2.566V18.804h4.825c1.459,0,2.6,0.333,3.423,0.998s1.235,1.592,1.235,2.782
			c0,0.662-0.173,1.23-0.519,1.705s-0.853,0.858-1.521,1.151c0.756,0.223,1.299,0.595,1.63,1.116s0.497,1.166,0.497,1.934v0.94
			c0,0.357,0.048,0.731,0.146,1.121c0.096,0.39,0.262,0.678,0.496,0.866v0.185h-2.646c-0.234-0.188-0.387-0.501-0.457-0.94
			s-0.105-0.855-0.105-1.248v-0.905c0-0.639-0.175-1.135-0.522-1.49c-0.35-0.354-0.84-0.532-1.473-0.532H317.393z M317.393,24.508
			h2.215c0.721,0,1.258-0.152,1.613-0.457c0.354-0.305,0.531-0.756,0.531-1.354c0-0.586-0.178-1.052-0.531-1.397
			c-0.355-0.346-0.878-0.519-1.569-0.519h-2.259V24.508z"/>
		<path fill="#3C3C3B" d="M330.075,18.804l3.261,9.431h0.053l3.287-9.431h3.357v12.797h-2.566v-3.814l0.246-5.651l-0.053-0.009
			l-3.428,9.475h-1.723l-3.41-9.439l-0.053,0.009l0.246,5.616v3.814h-2.566V18.804H330.075z"/>
		<path fill="#3C3C3B" d="M345.157,31.601h-2.566V18.804h2.566V31.601z"/>
		<path fill="#3C3C3B" d="M358.06,31.601h-2.558l-5.168-8.745l-0.053,0.009v8.736h-2.566V18.804h2.566l5.168,8.736l0.053-0.009
			v-8.728h2.558V31.601z"/>
		<path fill="#3C3C3B" d="M367.323,28.841h-4.491l-0.87,2.76h-2.593l4.403-12.797h2.628l4.386,12.797h-2.593L367.323,28.841z
			 M363.465,26.828h3.226l-1.582-5.027h-0.053L363.465,26.828z"/>
		<path fill="#3C3C3B" d="M382.326,31.601h-2.558l-5.168-8.745l-0.053,0.009v8.736h-2.566V18.804h2.566l5.168,8.736l0.053-0.009
			v-8.728h2.558V31.601z"/>
		<path fill="#3C3C3B" d="M393.567,20.781h-3.621v10.819h-2.566V20.781h-3.604v-1.978h9.791V20.781z"/>
		<path fill="#3C3C3B" d="M402.866,25.976h-5.3v3.647h6.196v1.978H395V18.804h8.745v1.978h-6.179v3.217h5.3V25.976z"/>
		<path fill="#3C3C3B" d="M412.244,28.261c0-0.492-0.175-0.888-0.523-1.187s-0.959-0.58-1.832-0.844
			c-1.523-0.439-2.675-0.961-3.454-1.564s-1.169-1.43-1.169-2.479s0.446-1.906,1.34-2.571s2.035-0.998,3.424-0.998
			c1.406,0,2.552,0.374,3.437,1.121s1.312,1.668,1.283,2.764l-0.018,0.053h-2.487c0-0.592-0.197-1.071-0.594-1.437
			c-0.395-0.366-0.95-0.549-1.665-0.549c-0.686,0-1.216,0.152-1.591,0.457s-0.562,0.694-0.562,1.169c0,0.434,0.2,0.79,0.602,1.068
			s1.095,0.573,2.079,0.883c1.412,0.393,2.481,0.911,3.208,1.556s1.09,1.491,1.09,2.54c0,1.096-0.433,1.96-1.297,2.593
			s-2.005,0.949-3.423,0.949c-1.395,0-2.61-0.359-3.647-1.077s-1.541-1.724-1.512-3.019l0.018-0.053h2.496
			c0,0.762,0.232,1.32,0.699,1.674c0.465,0.354,1.114,0.532,1.946,0.532c0.697,0,1.23-0.144,1.6-0.431
			S412.244,28.741,412.244,28.261z"/>
		<path fill="#3C3C3B" d="M91.102,53.201V40.404h4.395c1.564,0,2.854,0.5,3.867,1.499s1.521,2.281,1.521,3.845v2.118
			c0,1.57-0.507,2.852-1.521,3.845s-2.303,1.49-3.867,1.49H91.102z M93.668,42.381v8.842h1.696c0.92,0,1.641-0.31,2.162-0.931
			s0.782-1.431,0.782-2.432v-2.134c0-0.989-0.261-1.794-0.782-2.415c-0.521-0.62-1.242-0.931-2.162-0.931H93.668z"/>
		<path fill="#3C3C3B" d="M113.188,47.954c0,1.57-0.497,2.868-1.489,3.894c-0.994,1.025-2.284,1.538-3.872,1.538
			c-1.576,0-2.856-0.513-3.841-1.538s-1.477-2.323-1.477-3.894v-2.303c0-1.564,0.49-2.861,1.473-3.889
			c0.98-1.028,2.26-1.542,3.836-1.542c1.588,0,2.88,0.514,3.876,1.542s1.494,2.325,1.494,3.889V47.954z M110.622,45.64
			c0-0.998-0.249-1.817-0.747-2.457s-1.184-0.96-2.057-0.96s-1.55,0.318-2.03,0.956c-0.48,0.637-0.721,1.458-0.721,2.461v2.324
			c0,1.016,0.243,1.844,0.729,2.483c0.486,0.64,1.163,0.96,2.03,0.96c0.879,0,1.564-0.32,2.057-0.96
			c0.492-0.64,0.738-1.467,0.738-2.483V45.64z"/>
		<path fill="#3C3C3B" d="M122.241,48.56v4.641h-2.566V40.404h5.098c1.471,0,2.628,0.375,3.472,1.125s1.266,1.737,1.266,2.962
			s-0.422,2.209-1.266,2.953s-2.001,1.116-3.472,1.116H122.241z M122.241,46.583h2.531c0.715,0,1.257-0.195,1.626-0.584
			s0.554-0.886,0.554-1.49c0-0.615-0.184-1.124-0.549-1.525c-0.367-0.401-0.91-0.602-1.631-0.602h-2.531V46.583z"/>
		<path fill="#3C3C3B" d="M133.966,48.085v5.115h-2.566V40.404h4.825c1.459,0,2.6,0.333,3.423,0.998s1.235,1.592,1.235,2.782
			c0,0.662-0.173,1.23-0.519,1.705s-0.853,0.858-1.521,1.151c0.756,0.223,1.299,0.595,1.63,1.116s0.497,1.166,0.497,1.934v0.94
			c0,0.357,0.048,0.731,0.146,1.121c0.096,0.39,0.262,0.678,0.496,0.866v0.185h-2.646c-0.234-0.188-0.387-0.501-0.457-0.94
			s-0.105-0.855-0.105-1.248v-0.905c0-0.639-0.175-1.135-0.522-1.49c-0.35-0.354-0.84-0.532-1.473-0.532H133.966z M133.966,46.108
			h2.215c0.721,0,1.258-0.152,1.613-0.457c0.354-0.305,0.531-0.756,0.531-1.354c0-0.586-0.178-1.052-0.531-1.397
			c-0.355-0.346-0.878-0.519-1.569-0.519h-2.259V46.108z"/>
		<path fill="#3C3C3B" d="M153.592,47.954c0,1.57-0.497,2.868-1.489,3.894c-0.994,1.025-2.284,1.538-3.872,1.538
			c-1.576,0-2.856-0.513-3.841-1.538s-1.477-2.323-1.477-3.894v-2.303c0-1.564,0.49-2.861,1.473-3.889
			c0.98-1.028,2.26-1.542,3.836-1.542c1.588,0,2.88,0.514,3.876,1.542s1.494,2.325,1.494,3.889V47.954z M151.025,45.64
			c0-0.998-0.249-1.817-0.747-2.457s-1.184-0.96-2.057-0.96s-1.55,0.318-2.03,0.956c-0.48,0.637-0.721,1.458-0.721,2.461v2.324
			c0,1.016,0.243,1.844,0.729,2.483c0.486,0.64,1.163,0.96,2.03,0.96c0.879,0,1.564-0.32,2.057-0.96
			c0.492-0.64,0.738-1.467,0.738-2.483V45.64z"/>
		<path fill="#3C3C3B" d="M165.255,48.841l0.018,0.053c0.023,1.377-0.397,2.47-1.261,3.278c-0.865,0.809-2.064,1.213-3.6,1.213
			c-1.541,0-2.792-0.495-3.753-1.485s-1.441-2.265-1.441-3.823v-2.54c0-1.553,0.469-2.827,1.406-3.823s2.156-1.494,3.656-1.494
			c1.582,0,2.818,0.406,3.709,1.217s1.324,1.917,1.301,3.318l-0.018,0.053h-2.496c0-0.844-0.202-1.49-0.606-1.938
			s-1.034-0.672-1.89-0.672c-0.768,0-1.377,0.312-1.828,0.935s-0.677,1.418-0.677,2.384v2.555c0,0.978,0.237,1.778,0.712,2.402
			s1.116,0.935,1.925,0.935c0.803,0,1.396-0.215,1.779-0.646s0.576-1.071,0.576-1.92H165.255z"/>
		<path fill="#3C3C3B" d="M174.967,47.576h-5.3v3.647h6.196v1.978h-8.763V40.404h8.745v1.978h-6.179v3.217h5.3V47.576z"/>
		<path fill="#3C3C3B" d="M184.345,49.861c0-0.492-0.175-0.888-0.523-1.187s-0.959-0.58-1.832-0.844
			c-1.523-0.439-2.675-0.961-3.454-1.564s-1.169-1.43-1.169-2.479s0.446-1.906,1.34-2.571s2.035-0.998,3.424-0.998
			c1.406,0,2.552,0.374,3.437,1.121s1.312,1.668,1.283,2.764l-0.018,0.053h-2.487c0-0.592-0.197-1.071-0.594-1.437
			c-0.395-0.366-0.95-0.549-1.665-0.549c-0.686,0-1.216,0.152-1.591,0.457s-0.562,0.694-0.562,1.169c0,0.434,0.2,0.79,0.602,1.068
			s1.095,0.573,2.079,0.883c1.412,0.393,2.481,0.911,3.208,1.556s1.09,1.491,1.09,2.54c0,1.096-0.433,1.96-1.297,2.593
			s-2.005,0.949-3.423,0.949c-1.395,0-2.61-0.359-3.647-1.077s-1.541-1.724-1.512-3.019l0.018-0.053h2.496
			c0,0.762,0.232,1.32,0.699,1.674c0.465,0.354,1.114,0.532,1.946,0.532c0.697,0,1.23-0.144,1.6-0.431
			S184.345,50.341,184.345,49.861z"/>
		<path fill="#3C3C3B" d="M195.762,49.861c0-0.492-0.175-0.888-0.523-1.187s-0.959-0.58-1.832-0.844
			c-1.523-0.439-2.675-0.961-3.454-1.564s-1.169-1.43-1.169-2.479s0.446-1.906,1.34-2.571s2.035-0.998,3.424-0.998
			c1.406,0,2.552,0.374,3.437,1.121s1.312,1.668,1.283,2.764l-0.018,0.053h-2.487c0-0.592-0.197-1.071-0.594-1.437
			c-0.395-0.366-0.95-0.549-1.665-0.549c-0.686,0-1.216,0.152-1.591,0.457s-0.562,0.694-0.562,1.169c0,0.434,0.2,0.79,0.602,1.068
			s1.095,0.573,2.079,0.883c1.412,0.393,2.481,0.911,3.208,1.556s1.09,1.491,1.09,2.54c0,1.096-0.433,1.96-1.297,2.593
			s-2.005,0.949-3.423,0.949c-1.395,0-2.61-0.359-3.647-1.077s-1.541-1.724-1.512-3.019l0.018-0.053h2.496
			c0,0.762,0.232,1.32,0.699,1.674c0.465,0.354,1.114,0.532,1.946,0.532c0.697,0,1.23-0.144,1.6-0.431
			S195.762,50.341,195.762,49.861z"/>
		<path fill="#3C3C3B" d="M210.562,47.954c0,1.57-0.497,2.868-1.489,3.894c-0.994,1.025-2.284,1.538-3.872,1.538
			c-1.576,0-2.856-0.513-3.841-1.538s-1.477-2.323-1.477-3.894v-2.303c0-1.564,0.49-2.861,1.473-3.889
			c0.98-1.028,2.26-1.542,3.836-1.542c1.588,0,2.88,0.514,3.876,1.542s1.494,2.325,1.494,3.889V47.954z M207.996,45.64
			c0-0.998-0.249-1.817-0.747-2.457s-1.184-0.96-2.057-0.96s-1.55,0.318-2.03,0.956c-0.48,0.637-0.721,1.458-0.721,2.461v2.324
			c0,1.016,0.243,1.844,0.729,2.483c0.486,0.64,1.163,0.96,2.03,0.96c0.879,0,1.564-0.32,2.057-0.96
			c0.492-0.64,0.738-1.467,0.738-2.483V45.64z"/>
		<path fill="#3C3C3B" d="M223.957,49.861c0-0.492-0.175-0.888-0.523-1.187s-0.959-0.58-1.832-0.844
			c-1.523-0.439-2.675-0.961-3.454-1.564s-1.169-1.43-1.169-2.479s0.446-1.906,1.34-2.571s2.035-0.998,3.424-0.998
			c1.406,0,2.552,0.374,3.437,1.121s1.312,1.668,1.283,2.764l-0.018,0.053h-2.487c0-0.592-0.197-1.071-0.594-1.437
			c-0.395-0.366-0.95-0.549-1.665-0.549c-0.686,0-1.216,0.152-1.591,0.457s-0.562,0.694-0.562,1.169c0,0.434,0.2,0.79,0.602,1.068
			s1.095,0.573,2.079,0.883c1.412,0.393,2.481,0.911,3.208,1.556s1.09,1.491,1.09,2.54c0,1.096-0.433,1.96-1.297,2.593
			s-2.005,0.949-3.423,0.949c-1.395,0-2.61-0.359-3.647-1.077s-1.541-1.724-1.512-3.019l0.018-0.053h2.496
			c0,0.762,0.232,1.32,0.699,1.674c0.465,0.354,1.114,0.532,1.946,0.532c0.697,0,1.23-0.144,1.6-0.431
			S223.957,50.341,223.957,49.861z"/>
		<path fill="#3C3C3B" d="M235.33,50.441h-4.491l-0.87,2.76h-2.593l4.403-12.797h2.628l4.386,12.797H236.2L235.33,50.441z
			 M231.472,48.428h3.226l-1.582-5.027h-0.053L231.472,48.428z"/>
		<path fill="#3C3C3B" d="M250.113,40.404v8.49c0,1.436-0.475,2.543-1.424,3.322s-2.191,1.169-3.727,1.169
			c-1.529,0-2.764-0.39-3.705-1.169c-0.939-0.779-1.41-1.887-1.41-3.322v-8.49h2.575v8.483c0,0.843,0.226,1.474,0.677,1.893
			s1.072,0.628,1.863,0.628c0.803,0,1.433-0.208,1.89-0.624s0.686-1.048,0.686-1.897v-8.483H250.113z M245.429,37.152h2.716
			l0.018,0.053l-2.435,2.285h-2.048L245.429,37.152z"/>
		<path fill="#3C3C3B" d="M252.354,53.201V40.404h4.395c1.564,0,2.854,0.5,3.867,1.499s1.521,2.281,1.521,3.845v2.118
			c0,1.57-0.507,2.852-1.521,3.845s-2.303,1.49-3.867,1.49H252.354z M254.921,42.381v8.842h1.696c0.92,0,1.641-0.31,2.162-0.931
			s0.782-1.431,0.782-2.432v-2.134c0-0.989-0.261-1.794-0.782-2.415c-0.521-0.62-1.242-0.931-2.162-0.931H254.921z"/>
		<path fill="#3C3C3B" d="M272.016,47.576h-5.3v3.647h6.196v1.978h-8.763V40.404h8.745v1.978h-6.179v3.217h5.3V47.576z"/>
		<path fill="#3C3C3B" d="M279.24,48.718h-4.957v-1.978h4.957V48.718z"/>
		<path fill="#3C3C3B" d="M281.525,53.201V40.404h4.395c1.564,0,2.854,0.5,3.867,1.499s1.521,2.281,1.521,3.845v2.118
			c0,1.57-0.507,2.852-1.521,3.845s-2.303,1.49-3.867,1.49H281.525z M284.092,42.381v8.842h1.696c0.92,0,1.641-0.31,2.162-0.931
			s0.782-1.431,0.782-2.432v-2.134c0-0.989-0.261-1.794-0.782-2.415c-0.521-0.62-1.242-0.931-2.162-0.931H284.092z"/>
		<path fill="#3C3C3B" d="M303.612,47.954c0,1.57-0.497,2.868-1.489,3.894c-0.994,1.025-2.284,1.538-3.872,1.538
			c-1.576,0-2.856-0.513-3.841-1.538s-1.477-2.323-1.477-3.894v-2.303c0-1.564,0.49-2.861,1.473-3.889
			c0.98-1.028,2.26-1.542,3.836-1.542c1.588,0,2.88,0.514,3.876,1.542s1.494,2.325,1.494,3.889V47.954z M301.046,45.64
			c0-0.998-0.249-1.817-0.747-2.457s-1.184-0.96-2.057-0.96s-1.55,0.318-2.03,0.956c-0.48,0.637-0.721,1.458-0.721,2.461v2.324
			c0,1.016,0.243,1.844,0.729,2.483c0.486,0.64,1.163,0.96,2.03,0.96c0.879,0,1.564-0.32,2.057-0.96
			c0.492-0.64,0.738-1.467,0.738-2.483V45.64z"/>
		<path fill="#3C3C3B" d="M313.482,47.576h-5.3v3.647h6.196v1.978h-8.763V40.404h8.745v1.978h-6.179v3.217h5.3V47.576z"/>
		<path fill="#3C3C3B" d="M326.297,53.201h-2.558l-5.168-8.745l-0.053,0.009v8.736h-2.566V40.404h2.566l5.168,8.736l0.053-0.009
			v-8.728h2.558V53.201z"/>
		<path fill="#3C3C3B" d="M338.355,48.841l0.018,0.053c0.023,1.377-0.397,2.47-1.261,3.278c-0.865,0.809-2.064,1.213-3.6,1.213
			c-1.541,0-2.792-0.495-3.753-1.485s-1.441-2.265-1.441-3.823v-2.54c0-1.553,0.469-2.827,1.406-3.823s2.156-1.494,3.656-1.494
			c1.582,0,2.818,0.406,3.709,1.217s1.324,1.917,1.301,3.318l-0.018,0.053h-2.496c0-0.844-0.202-1.49-0.606-1.938
			s-1.034-0.672-1.89-0.672c-0.768,0-1.377,0.312-1.828,0.935s-0.677,1.418-0.677,2.384v2.555c0,0.978,0.237,1.778,0.712,2.402
			s1.116,0.935,1.925,0.935c0.803,0,1.396-0.215,1.779-0.646s0.576-1.071,0.576-1.92H338.355z M334.304,53.157l-0.097,0.501
			c0.375,0.064,0.688,0.217,0.94,0.457s0.378,0.595,0.378,1.063c0,0.627-0.269,1.128-0.804,1.503
			c-0.537,0.375-1.297,0.562-2.281,0.562l-0.062-1.415c0.299,0,0.536-0.06,0.712-0.18s0.264-0.303,0.264-0.549
			c0-0.24-0.094-0.409-0.281-0.505s-0.51-0.16-0.967-0.189l0.272-1.248H334.304z"/>
		<path fill="#3C3C3B" d="M347.065,50.441h-4.491l-0.87,2.76h-2.593l4.403-12.797h2.628l4.386,12.797h-2.593L347.065,50.441z
			 M343.207,48.428h3.226l-1.582-5.027h-0.053L343.207,48.428z"/>
	</g>
</g>
</svg>
